<svg xmlns="http://www.w3.org/2000/svg" viewBox="0 0 512 512">
  <defs>
    <linearGradient id="grad" x1="0%" y1="0%" x2="100%" y2="100%">
      <stop offset="0%" style="stop-color:#38bdf8;stop-opacity:1" />
      <stop offset="100%" style="stop-color:#0284c7;stop-opacity:1" />
    </linearGradient>
  </defs>
  <rect width="512" height="512" rx="128" fill="#0f172a" />
  <path d="M360 160c-20-20-60-20-60-20s-20-40-60-40-60 40-60 40-40 0-60 20c-20 20-20 60-20 60s20 40 40 40 40-20 60-20c20 0 40 20 60 40l20-20c20-20 40-40 40-40s20 0 40-20c0 0 20-20 0-40z" fill="url(#grad)" />
  <circle cx="280" cy="180" r="15" fill="#fff" />
  <path d="M380 280s-40 40-80 0" stroke="#fbbf24" stroke-width="20" stroke-linecap="round" fill="none" />
</svg>
